<?xml version="1.0" encoding="utf-8"?>
<!-- Generator: Adobe Illustrator 16.0.0, SVG Export Plug-In . SVG Version: 6.00 Build 0)  -->
<!DOCTYPE svg PUBLIC "-//W3C//DTD SVG 1.1//EN" "http://www.w3.org/Graphics/SVG/1.1/DTD/svg11.dtd">
<svg version="1.1" id="Layer_1" xmlns="http://www.w3.org/2000/svg" xmlns:xlink="http://www.w3.org/1999/xlink" x="0px" y="0px"
	 width="72.702px" height="72.682px" viewBox="14.917 7.297 72.702 72.682" enable-background="new 14.917 7.297 72.702 72.682"
	 xml:space="preserve">
<path d="M83.265,74.27l-0.117-0.109l-2.948-2.949c5.141-0.012,7.25-3.086,7.271-3.119l0.148-0.23l-0.273-0.02
	c-0.009,0-0.799-0.076-3.242-1.943l-0.112-0.086l-0.1,0.1c-0.507,0.506-1.737,0.576-2.522,0.564
	c0.535-0.248,1.275-0.648,1.775-1.148l0.128-0.127l-0.141-0.111c-0.294-0.236-0.603-0.49-0.931-0.766l-0.115-0.094l-0.102,0.104
	c-0.752,0.75-2.819,0.516-3.91,0.328c0.756-0.221,1.946-0.662,2.688-1.406l0.123-0.121l-0.129-0.113
	c-1.586-1.387-2.875-2.594-4.448-4.166c-0.443-0.443-0.913-0.922-1.435-1.457c-1.487-1.486-8.746-0.701-9.055-0.668l-0.092,0.012
	L29.022,20.036c-0.547-0.546-0.793-0.979-0.878-1.223c1.194-0.923,2.094-1.288,2.609-1.496c0.393-0.157,0.607-0.245,0.65-0.453
	c0.053-0.26-0.203-0.492-0.794-1.071c-0.147-0.145-0.319-0.312-0.511-0.506c-0.325-0.324-0.7-0.102-1.063,0.114
	c-0.483,0.286-0.983,0.582-1.632,0.076c-0.031-0.023-0.058-0.047-0.081-0.069c0-0.001,0-0.001,0-0.001
	c-0.065-0.065-0.094-0.121-0.086-0.165c0.028-0.164,0.442-0.364,0.715-0.496c0.364-0.175,0.65-0.314,0.688-0.536
	c0.012-0.067,0.004-0.167-0.106-0.278l0,0c-3.957-3.726-11.279-6.772-13.06-6.63c-0.187,0.015-0.317,0.067-0.396,0.157
	c-0.091,0.08-0.142,0.209-0.156,0.396c-0.141,1.781,2.904,9.104,6.64,13.069c0.101,0.1,0.201,0.108,0.269,0.096
	c0.223-0.038,0.361-0.324,0.536-0.687c0.132-0.274,0.331-0.688,0.495-0.716c0.061-0.009,0.144,0.05,0.236,0.167
	c0.505,0.65,0.21,1.15-0.077,1.634c-0.215,0.363-0.438,0.738-0.114,1.062c0.193,0.195,0.361,0.365,0.507,0.513
	c0.111,0.114,0.209,0.215,0.297,0.302l0,0c0.368,0.367,0.562,0.536,0.773,0.493c0.207-0.042,0.294-0.258,0.453-0.65
	c0.208-0.516,0.572-1.418,1.495-2.612c0.244,0.086,0.677,0.332,1.225,0.879l36.705,36.708l-0.012,0.088
	c-0.033,0.307-0.819,7.566,0.68,9.066l0,0c0.963,0.936,1.611,1.582,2.405,2.398l0.159,0.162l0.102-0.205
	c0.656-1.344,0.854-2.852,0.906-3.887c0.292,1.32,0.584,3.441-0.111,4.861l-0.048,0.102l0.077,0.08
	c2.387,2.502,3.658,4.086,4.588,5.307l0.158,0.207l0.113-0.234c0.357-0.732,0.504-1.572,0.56-2.23
	c0.22,0.971,0.42,2.369,0.021,3.189l-0.042,0.088l0.057,0.076c1.28,1.803,1.489,2.559,1.492,2.574l0.057,0.223l0.189-0.127
	c0.031-0.021,3.104-2.129,3.119-7.266l3.06,3.061c0.235,0.234,0.708,0.117,1.1-0.275S83.499,74.506,83.265,74.27z"/>
</svg>
